# xmcd
#
# Track frame offsets:
#	150
#	20167
#	38062
#	58235
#	76182
#	92427
#	109922
#	127827
#	146320
#	163867
#	180795
#	193455
#	210382
#	230775
#	245977
#
# Disc length: 3506 seconds
#
# Revision: 1
# Processed by: cddbd v1.5.1PL0 Copyright (c) Steve Scherf et al.
# Submitted via: audiograbber 1.83.01
#
DISCID=ce0db00f
DTITLE=Music Meastro - Country Hits Of The 90's Vol. 2 - MM6012
DYEAR=1900
DGENRE=Karaoke
TTITLE0=Yearwood, Trisha and Don Henley - Walkaway Joe
TTITLE1=McEntire, Reba - If I Had Only Known
TTITLE2=Tucker, Tanya - Two Sparrows In A Hurricane
TTITLE3=Wright, Michelle - He Would Be Sixteen
TTITLE4=McEntire, Reba - Take It Back
TTITLE5=Gill, Vince - Don't Let Our Love Start Slippin' Away
TTITLE6=Restless Heart - When She Cries
TTITLE7=Stone, Doug - Too Busy Being In Love
TTITLE8=Brooks and Dunn - Lost And Found
TTITLE9=Cyrus, Billy Ray - Where Am I Gonna Live
TTITLE10=Raye, Collin - I Want You Bad (And That Ain't Good)
TTITLE11=Tritt, Travis - Can I Trust You With My Heart
TTITLE12=Judd, Wynonna - My Strongest Weakness
TTITLE13=Bogguss, Suzy - Drive South
TTITLE14=Dunn, Holly - Golden Years
EXTD=
EXTT0=
EXTT1=
EXTT2=
EXTT3=
EXTT4=
EXTT5=
EXTT6=
EXTT7=
EXTT8=
EXTT9=
EXTT10=
EXTT11=
EXTT12=
EXTT13=
EXTT14=
PLAYORDER=
